Coordinates
version=1
nRows=10
nColumns=38
inDegrees=no

Units are S.I. units (second, meters, Newtons, ...)
If the header above contains a line with 'inDegrees', this indicates whether rotational values are in degrees (yes) or radians (no).

endheader
time	pelvis_tilt	pelvis_list	pelvis_rotation	pelvis_tx	pelvis_ty	pelvis_tz	hip_flexion_r	hip_adduction_r	hip_rotation_r	knee_angle_r	ankle_angle_r	subtalar_angle_r	mtp_angle_r	hip_flexion_l	hip_adduction_l	hip_rotation_l	knee_angle_l	ankle_angle_l	subtalar_angle_l	mtp_angle_l	lumbar_extension	lumbar_bending	lumbar_rotation	arm_flex_r	arm_add_r	arm_rot_r	elbow_flex_r	pro_sup_r	wrist_flex_r	wrist_dev_r	arm_flex_l	arm_add_l	arm_rot_l	elbow_flex_l	pro_sup_l	wrist_flex_l	wrist_dev_l
1.685	-0.133548	0.0175835	0.0278549	1.5523	0.999316	-0.46036	0.278992	-0.0237815	-0.0216081	0.25866	0.154271	-0.0411861	-4.11468e-09	0.401865	-0.0467208	0.0190975	1.17683	0.00291598	0.0459935	-3.85752e-09	-0.117214	0.0215412	0.00536497	-0.0934823	-0.265401	0.0754852	0.918314	1.33945	-2.65669e-10	-2.70932e-10	-0.120558	-0.161211	0.0760267	0.688236	1.41977	7.85461e-11	-6.10354e-10
1.69	-0.135559	0.0201347	0.0294106	1.55772	0.999842	-0.460301	0.271692	-0.0261958	-0.0205351	0.252322	0.156704	-0.0410079	-4.11468e-09	0.417643	-0.0431695	0.0179359	1.1732	0.0130625	0.0464015	-3.85752e-09	-0.116348	0.0181295	0.00558647	-0.0886648	-0.266408	0.0774646	0.926539	1.33798	-2.65669e-10	-2.70932e-10	-0.125896	-0.161981	0.0726706	0.687552	1.42204	7.85461e-11	-6.10354e-10
1.695	-0.137538	0.0226709	0.0309058	1.56314	1.00032	-0.460234	0.264374	-0.0285806	-0.0195022	0.245983	0.159102	-0.0408158	-4.11468e-09	0.433152	-0.0398532	0.0162755	1.1684	0.022701	0.0467481	-3.85752e-09	-0.115562	0.0146675	0.0059043	-0.0839315	-0.267305	0.0792857	0.934887	1.33648	-2.65669e-10	-2.70932e-10	-0.131217	-0.162803	0.0690633	0.687155	1.42434	7.85461e-11	-6.10354e-10
1.7	-0.13947	0.0251741	0.0323344	1.56856	1.00076	-0.460159	0.257029	-0.0309159	-0.018511	0.23966	0.16147	-0.0406042	-4.11468e-09	0.448356	-0.0367888	0.014141	1.16246	0.0318194	0.0470268	-3.85752e-09	-0.114872	0.0111768	0.00632704	-0.0792868	-0.268107	0.0809581	0.943367	1.33496	-2.65669e-10	-2.70932e-10	-0.136508	-0.163669	0.0652172	0.687019	1.42665	7.85461e-11	-6.10354e-10
1.705	-0.141342	0.0276272	0.0336904	1.57397	1.00115	-0.460076	0.249649	-0.0331826	-0.0175619	0.233364	0.16381	-0.0403672	-4.11468e-09	0.463216	-0.0339889	0.0115605	1.15536	0.0404117	0.0472318	-3.85752e-09	-0.114291	0.00767862	0.00686205	-0.0747352	-0.268827	0.082494	0.951986	1.33347	-2.65669e-10	-2.70932e-10	-0.141753	-0.164574	0.0611507	0.687121	1.42894	7.85461e-11	-6.10354e-10
1.71	-0.14314	0.0300141	0.034968	1.57937	1.00149	-0.459985	0.242224	-0.0353633	-0.016654	0.227103	0.166125	-0.0400989	-4.04521e-09	0.477692	-0.0314613	0.00856407	1.14711	0.0484755	0.047357	-3.85226e-09	-0.113831	0.00419368	0.00751527	-0.0702811	-0.269482	0.0839062	0.96075	1.33204	-2.72749e-10	-3.1457e-10	-0.146939	-0.165513	0.0568851	0.687432	1.43118	8.4937e-11	-6.46573e-10
1.715	-0.144857	0.03232	0.0361613	1.58478	1.00179	-0.459885	0.234746	-0.0374426	-0.0157851	0.220881	0.168417	-0.0397935	-4.04521e-09	0.49174	-0.0292093	0.0051836	1.13767	0.056009	0.0473969	-3.85226e-09	-0.113498	0.000741573	0.00829093	-0.065929	-0.270084	0.0852106	0.969662	1.33071	-2.72749e-10	-3.1457e-10	-0.152054	-0.166482	0.0524466	0.687925	1.43333	8.4937e-11	-6.46573e-10
1.72	-0.146486	0.0345324	0.0372655	1.59019	1.00203	-0.459777	0.227207	-0.0394081	-0.0149524	0.214701	0.170689	-0.0394454	-4.04521e-09	0.505317	-0.0272309	0.00145154	1.12703	0.0630094	0.0473462	-3.85226e-09	-0.113296	-0.00265981	0.00919127	-0.061683	-0.270652	0.0864265	0.978723	1.32951	-2.72749e-10	-3.1457e-10	-0.157086	-0.167475	0.0478649	0.688574	1.43534	8.4937e-11	-6.46573e-10
1.725	-0.148023	0.0366419	0.0382772	1.59561	1.00224	-0.459662	0.219604	-0.0412508	-0.0141521	0.208561	0.172941	-0.0390497	-4.04521e-09	0.518378	-0.0255188	-0.00259949	1.11514	0.0694716	0.0472	-3.85226e-09	-0.113221	-0.00599508	0.0102162	-0.0575473	-0.2712	0.0875749	0.987932	1.32849	-2.72749e-10	-3.1457e-10	-0.162028	-0.168489	0.0431667	0.68935	1.4372	8.4937e-11	-6.46573e-10
1.73	-0.149471	0.038642	0.0391941	1.60103	1.00239	-0.459541	0.211937	-0.042966	-0.0133795	0.20246	0.175175	-0.0386028	-4.04521e-09	0.530882	-0.0240594	-0.00693734	1.10197	0.0753876	0.0469543	-3.85226e-09	-0.113268	-0.00925186	0.0113632	-0.0535254	-0.271745	0.0886797	0.997285	1.32766	-2.72749e-10	-3.1457e-10	-0.166872	-0.169519	0.0383801	0.690228	1.43889	8.4937e-11	-6.46573e-10
